<?xml version="1.0" encoding="UTF-8"?>
<svg id="_Слой_1" data-name="Слой 1" xmlns="http://www.w3.org/2000/svg" viewBox="0 0 1080 1350">
  <defs>
    <style>
      .cls-1 {
        fill: #233345;
      }

      .cls-2 {
        fill: #f8d54f;
      }

      .cls-3 {
        fill: #6abf6c;
      }
    </style>
  </defs>
  <g>
    <path class="cls-1" d="m303.26,740.33c-2.8-2.27-4.73-4.89-5.79-7.89s-1.6-5.96-1.6-8.89c0-4.93,1.1-11.25,3.3-18.98,2.2-7.72,5.16-15.85,8.89-24.37-.27.13-.53.2-.8.2-.67,0-1.37-.76-2.1-2.3-.73-1.53-1.1-3.16-1.1-4.89,0-1.86.63-3.73,1.9-5.59,1.26-1.86,3.76-3.26,7.49-4.2.8-.27,1.86-.53,3.2-.8,4.26-7.99,8.86-15.28,13.79-21.88,4.93-6.59,9.85-11.55,14.78-14.88,3.06-2.13,6.29-3.7,9.69-4.7,3.4-1,6.76-1.5,10.09-1.5,4,0,7.92.73,11.79,2.2,3.86,1.47,7.06,3.63,9.59,6.49,2.53,2.87,3.8,6.43,3.8,10.69v.2c0,.53-.2.8-.6.8s-.73-.33-1-1c-.93-3.6-2.73-6.16-5.39-7.69-2.67-1.53-5.59-2.3-8.79-2.3-2.53,0-5.06.4-7.59,1.2-2.53.8-4.73,1.8-6.59,3-4.79,3.07-9.59,7.29-14.38,12.69s-9.12,10.76-12.99,16.08c3.6.27,6.82.87,9.69,1.8,2.86.93,4.96,1.93,6.29,3,1.86,1.33,3.26,2.73,4.2,4.2.53.93.8,1.73.8,2.4,0,.8-.33,1.2-1,1.2-.4,0-1-.2-1.8-.6-2.4-1.6-6.13-2.4-11.19-2.4-2.13,0-4.46.17-6.99.5-2.53.33-5.19.9-7.99,1.7l-2.6,3.8c-4.26,6.26-7.93,12.69-10.99,19.28-3.07,6.59-5.39,12.82-6.99,18.68-1.6,5.86-2.4,10.92-2.4,15.18,0,3.73.8,6.59,2.4,8.59.4.53.4.9,0,1.1-.4.2-.73.17-1-.1Z"/>
    <path class="cls-1" d="m359.6,724.35c-5.19,0-9.09-1.3-11.69-3.9-2.6-2.6-3.9-5.96-3.9-10.09,0-2.53.33-5,1-7.39.66-2.4,1.4-4.53,2.2-6.39-.93.93-1.83,1.77-2.7,2.5-.86.73-1.56,1.3-2.1,1.7-.53.4-1,.6-1.4.6-.53,0-.8-.33-.8-1,0-.93.67-2,2-3.2,4.66-3.86,8.32-7.29,10.99-10.29,2.66-3,5.46-5.76,8.39-8.29,4.93-4.26,10.19-7.59,15.78-9.99,5.59-2.4,11.19-3.6,16.78-3.6s10.45,1.4,13.79,4.2c3.33,2.8,4.99,6.93,4.99,12.39,0,3.07-.9,6.59-2.7,10.59-1.8,4-4.63,8.13-8.49,12.39-1.6,1.73-3.4,3.43-5.39,5.09-2,1.67-3.73,2.9-5.19,3.7,6.52-.66,12.65-2.96,18.38-6.89,5.73-3.93,10.85-7.82,15.38-11.69.67-.4,1.13-.6,1.4-.6.67,0,1,.33,1,1,0,.53-.33,1.13-1,1.8-5.73,5.46-11.89,10.06-18.48,13.79-6.59,3.73-13.89,5.53-21.88,5.39-4.66,2.53-9.22,4.53-13.69,5.99-4.46,1.46-8.69,2.2-12.69,2.2Zm8.99-5.59c1.86,0,3.86-.33,5.99-1,2.13-.67,4.26-1.53,6.39-2.6-.8,0-1.57-.4-2.3-1.2-.73-.8-1.1-1.86-1.1-3.2,0-2.66,1-5.39,3-8.19,2-2.8,4.46-5.19,7.39-7.19,2.93-2,5.79-3,8.59-3,1.6,0,3.1.43,4.5,1.3,1.4.87,2.16,2.03,2.3,3.5,2.26-2.53,3.83-5.26,4.7-8.19.86-2.93,1.3-5.66,1.3-8.19,0-3.46-1.1-6.09-3.3-7.89-2.2-1.8-5.16-2.7-8.89-2.7s-7.56,1.27-11.89,3.8c-4.33,2.53-8.39,5.79-12.19,9.79-3.8,4-6.93,8.33-9.39,12.99-2.47,4.66-3.7,9.12-3.7,13.39,0,5.73,2.86,8.59,8.59,8.59Z"/>
    <path class="cls-1" d="m439.31,724.35c-5.19,0-9.09-1.3-11.69-3.9-2.6-2.6-3.9-5.96-3.9-10.09,0-2.53.33-5,1-7.39.66-2.4,1.4-4.53,2.2-6.39-.93.93-1.83,1.77-2.7,2.5-.86.73-1.56,1.3-2.1,1.7-.53.4-1,.6-1.4.6-.53,0-.8-.33-.8-1,0-.93.67-2,2-3.2,4.66-3.86,8.32-7.29,10.99-10.29,2.66-3,5.46-5.76,8.39-8.29,4.93-4.26,10.19-7.59,15.78-9.99,5.59-2.4,11.19-3.6,16.78-3.6s10.45,1.4,13.79,4.2c3.33,2.8,4.99,6.93,4.99,12.39,0,3.07-.9,6.59-2.7,10.59-1.8,4-4.63,8.13-8.49,12.39-1.6,1.73-3.4,3.43-5.39,5.09-2,1.67-3.73,2.9-5.19,3.7,6.52-.66,12.65-2.96,18.38-6.89,5.73-3.93,10.85-7.82,15.38-11.69.67-.4,1.13-.6,1.4-.6.67,0,1,.33,1,1,0,.53-.33,1.13-1,1.8-5.73,5.46-11.89,10.06-18.48,13.79-6.59,3.73-13.89,5.53-21.88,5.39-4.66,2.53-9.22,4.53-13.69,5.99-4.46,1.46-8.69,2.2-12.69,2.2Zm8.99-5.59c1.86,0,3.86-.33,5.99-1,2.13-.67,4.26-1.53,6.39-2.6-.8,0-1.57-.4-2.3-1.2-.73-.8-1.1-1.86-1.1-3.2,0-2.66,1-5.39,3-8.19,2-2.8,4.46-5.19,7.39-7.19,2.93-2,5.79-3,8.59-3,1.6,0,3.1.43,4.5,1.3,1.4.87,2.16,2.03,2.3,3.5,2.26-2.53,3.83-5.26,4.7-8.19.86-2.93,1.3-5.66,1.3-8.19,0-3.46-1.1-6.09-3.3-7.89-2.2-1.8-5.16-2.7-8.89-2.7s-7.56,1.27-11.89,3.8c-4.33,2.53-8.39,5.79-12.19,9.79-3.8,4-6.93,8.33-9.39,12.99-2.47,4.66-3.7,9.12-3.7,13.39,0,5.73,2.86,8.59,8.59,8.59Z"/>
    <path class="cls-1" d="m559.98,740.13c-2.13-1.87-3.7-4.23-4.7-7.09-1-2.87-1.5-6.09-1.5-9.69,0-3.33.37-6.86,1.1-10.59.73-3.73,1.7-7.66,2.9-11.79-2.53,3.2-5.36,6.46-8.49,9.79-3.13,3.33-6.09,6.19-8.89,8.59-5.59,4.53-11.66,6.79-18.18,6.79-4.93,0-9.12-1.57-12.59-4.7-3.47-3.13-5.19-8.02-5.19-14.68,0-1.73.17-3.4.5-4.99.33-1.6.76-3.2,1.3-4.79-.8.67-1.57,1.33-2.3,2-.73.67-1.43,1.27-2.1,1.8-.53.4-1.06.6-1.6.6-.67,0-1-.33-1-1,0-.8.67-1.73,2-2.8,1.73-1.46,3.7-3.46,5.89-5.99,2.2-2.53,4.63-5.26,7.29-8.19,4.66-5.19,10.35-9.39,17.08-12.59,6.72-3.2,13.35-4.79,19.88-4.79,5.59,0,9.69,1,12.29,3,2.6,2,3.9,4.4,3.9,7.19,3.33-7.06,6.82-13.82,10.49-20.28,3.66-6.46,7.12-12.15,10.39-17.08,3.26-4.93,5.96-8.59,8.09-10.99,1.46-1.73,3.3-3,5.49-3.8,2.2-.8,4.43-1.2,6.69-1.2s4.46.33,6.59,1c2.13.67,4,1.73,5.59,3.2-1.33.8-3.43,2.7-6.29,5.69-2.87,3-6.13,6.69-9.79,11.09-3.66,4.4-7.46,9.12-11.39,14.18-3.93,5.06-7.63,10.12-11.09,15.18-4.13,5.99-8.03,12.46-11.69,19.38-3.67,6.93-6.63,13.62-8.89,20.08-2.27,6.46-3.4,12.15-3.4,17.08,0,4,.87,7.06,2.6,9.19.4.53.4.9,0,1.1-.4.2-.73.23-1,.1Zm-31.57-20.78c2.4,0,5.59-1.23,9.59-3.7,4-2.46,8.92-6.69,14.78-12.69,1.86-1.86,3.36-3.5,4.5-4.89,1.13-1.4,2.1-2.76,2.9-4.1.67-1.86,1.33-3.66,2-5.39.67-1.73,1.4-3.46,2.2-5.19-.8.53-1.4.8-1.8.8-1.07,0-1.6-.6-1.6-1.8,0-.53.2-1.2.6-2,1.33-2.26,2-4.26,2-5.99,0-2.8-1.6-4.2-4.79-4.2-1.73,0-4.06.53-6.99,1.6-3.33,1.33-6.76,3.37-10.29,6.09-3.53,2.73-6.79,5.93-9.79,9.59-3,3.67-5.39,7.43-7.19,11.29-1.8,3.86-2.7,7.53-2.7,10.99,0,2.53.5,4.76,1.5,6.69,1,1.93,2.7,2.9,5.09,2.9Z"/>
    <path class="cls-1" d="m604.13,724.55c-5.86,0-10.76-1.43-14.68-4.29-3.93-2.86-5.89-7.02-5.89-12.49,0-5.86,1.4-11.32,4.2-16.38,2.8-5.06,6.52-9.49,11.19-13.29,4.66-3.8,9.75-6.76,15.28-8.89,5.53-2.13,11.02-3.2,16.48-3.2s9.52.97,12.19,2.9c2.66,1.93,4,4.3,4,7.09s-1.23,5.49-3.7,8.49c-2.47,3-6.03,5.63-10.69,7.89-2.93,1.33-6.29,2.5-10.09,3.5-3.8,1-7.09,1.5-9.89,1.5-2.13,0-3.2-.33-3.2-1,0-.53.93-.8,2.8-.8,1.73,0,4.43-.5,8.09-1.5,3.66-1,7.22-2.36,10.69-4.1,3.86-2.13,6.59-4.26,8.19-6.39,1.6-2.13,2.4-4.06,2.4-5.79,0-1.6-.63-2.93-1.9-4-1.27-1.06-3.03-1.6-5.29-1.6-2.13,0-4.53.6-7.19,1.8-3.87,1.73-7.83,4.56-11.89,8.49-4.06,3.93-7.43,8.23-10.09,12.89-2.67,4.66-4,9.12-4,13.39,0,2.93.83,5.39,2.5,7.39,1.66,2,4.16,3,7.49,3s7.46-1.1,11.99-3.3c4.53-2.2,9.12-4.93,13.79-8.19,4.66-3.26,8.99-6.56,12.99-9.89,4-3.33,7.19-6.12,9.59-8.39.8-.8,1.4-1.2,1.8-1.2s.6.33.6,1c0,.93-.4,1.73-1.2,2.4-5.06,4.66-10.56,9.52-16.48,14.58-5.93,5.06-12.25,9.36-18.98,12.89-6.73,3.53-13.75,5.36-21.08,5.49Z"/>
    <path class="cls-1" d="m682.65,722.75c-5.73,0-9.59-1.1-11.59-3.3-2-2.2-3-4.63-3-7.29,0-3.46,1.33-7.12,4-10.99,1.6-2.26,3.4-4.83,5.39-7.69,2-2.86,3.86-5.56,5.59-8.09,1.73-2.53,2.93-4.33,3.6-5.39.93-1.33,1.5-2.23,1.7-2.7.2-.46.3-.96.3-1.5,0-.8-.5-1.56-1.5-2.3-1-.73-2.63-1.1-4.9-1.1-.67,0-1.23.03-1.7.1-.47.07-.97.1-1.5.1-1.07,0-1.67-.07-1.8-.2l-.6.8c-3.73,4.93-7.73,9.76-11.99,14.48-4.26,4.73-8.92,9.09-13.99,13.09-.53.4-.93.6-1.2.6-.53,0-.8-.27-.8-.8,0-1.06.8-2.26,2.4-3.6,4.13-3.46,8.19-7.36,12.19-11.69,4-4.33,7.59-8.89,10.79-13.69-1.2-.8-1.8-2.4-1.8-4.79,0-3.6,1.13-7.46,3.4-11.59,1.6-2.8,3.36-4.89,5.29-6.29,1.93-1.4,3.63-2.1,5.09-2.1,2.8,0,4.2,1.67,4.2,4.99,0,2.13-.8,4.79-2.4,7.99-.67,1.6-1.97,3.63-3.9,6.09-1.93,2.47-3.83,4.23-5.69,5.29,2.8-.93,6.36-1.56,10.69-1.9,4.33-.33,7.96-.5,10.89-.5,1.73,0,3.86.5,6.39,1.5,2.53,1,3.8,2.77,3.8,5.29,0,1.73-.8,3.6-2.4,5.59-.4.53-1.47,1.8-3.2,3.8-1.73,2-3.63,4.4-5.69,7.19-2.07,2.8-3.96,5.59-5.69,8.39-1.73,2.53-3.1,4.86-4.1,6.99-1,2.13-1.5,3.93-1.5,5.39,0,2.13,1.2,3.2,3.6,3.2,2.8,0,6.52-1.33,11.19-4,4.66-2.66,9.69-6.09,15.08-10.29,5.39-4.2,10.35-8.56,14.88-13.09.53-.53,1-.8,1.4-.8.53,0,.8.33.8,1,0,.8-.33,1.53-1,2.2-4.66,4.66-9.82,9.42-15.48,14.29-5.66,4.86-11.52,8.96-17.58,12.29-6.06,3.33-11.96,5-17.68,5Z"/>
    <path class="cls-1" d="m754.77,722.75c-5.73,0-9.59-1.1-11.59-3.3-2-2.2-3-4.63-3-7.29,0-3.46,1.33-7.12,4-10.99,1.6-2.26,3.4-4.83,5.39-7.69,2-2.86,3.86-5.56,5.59-8.09,1.73-2.53,2.93-4.33,3.6-5.39.93-1.33,1.5-2.23,1.7-2.7.2-.46.3-.96.3-1.5,0-.8-.5-1.56-1.5-2.3-1-.73-2.63-1.1-4.89-1.1-.67,0-1.23.03-1.7.1-.47.07-.97.1-1.5.1-1.07,0-1.67-.07-1.8-.2l-.6.8c-3.73,4.93-7.73,9.76-11.99,14.48-4.26,4.73-8.92,9.09-13.99,13.09-.53.4-.93.6-1.2.6-.53,0-.8-.27-.8-.8,0-1.06.8-2.26,2.4-3.6,4.13-3.46,8.19-7.36,12.19-11.69,4-4.33,7.59-8.89,10.79-13.69-1.2-.8-1.8-2.4-1.8-4.79,0-3.6,1.13-7.46,3.4-11.59,1.6-2.8,3.36-4.89,5.29-6.29,1.93-1.4,3.63-2.1,5.09-2.1,2.8,0,4.2,1.67,4.2,4.99,0,2.13-.8,4.79-2.4,7.99-.67,1.6-1.97,3.63-3.9,6.09-1.93,2.47-3.83,4.23-5.69,5.29,2.8-.93,6.36-1.56,10.69-1.9,4.33-.33,7.96-.5,10.89-.5,1.73,0,3.86.5,6.39,1.5,2.53,1,3.8,2.77,3.8,5.29,0,1.73-.8,3.6-2.4,5.59-.4.53-1.47,1.8-3.2,3.8-1.73,2-3.63,4.4-5.69,7.19-2.07,2.8-3.96,5.59-5.69,8.39-1.73,2.53-3.1,4.86-4.1,6.99-1,2.13-1.5,3.93-1.5,5.39,0,2.13,1.2,3.2,3.6,3.2,2.8,0,6.52-1.33,11.19-4,4.66-2.66,9.69-6.09,15.08-10.29,5.39-4.2,10.35-8.56,14.88-13.09.53-.53,1-.8,1.4-.8.53,0,.8.33.8,1,0,.8-.33,1.53-1,2.2-4.66,4.66-9.82,9.42-15.48,14.29-5.66,4.86-11.52,8.96-17.58,12.29-6.06,3.33-11.96,5-17.68,5Z"/>
    <path class="cls-1" d="m807.91,722.75c-4.13,0-7.33-1.3-9.59-3.9-2.26-2.6-3.4-5.96-3.4-10.09,0-3.86,1.03-8.12,3.1-12.79,2.06-4.66,5.36-9.39,9.89-14.18,4.66-5.06,10.45-9.16,17.38-12.29,6.92-3.13,13.52-4.7,19.78-4.7,5.06,0,9.39,1.1,12.99,3.3,3.6,2.2,5.99,4.96,7.19,8.29,1.46,0,3.3.4,5.49,1.2,2.2.8,3.3,2.27,3.3,4.4,0,1.47-.73,3.13-2.2,5-.93,1.33-2.57,3.33-4.89,5.99-2.33,2.67-4.5,5.53-6.49,8.59-1.6,2.4-2.87,4.63-3.8,6.69-.93,2.07-1.4,3.83-1.4,5.29,0,2,1,3,3,3,2.26,0,5.66-1.26,10.19-3.8,4.93-2.8,9.66-5.99,14.19-9.59,4.53-3.6,8.06-6.46,10.59-8.59.67-.53,1.13-.8,1.4-.8.53,0,.8.33.8,1,0,.8-.33,1.53-1,2.2-1.2,1.07-3.53,3.07-6.99,5.99-3.47,2.93-7.43,5.99-11.89,9.19-4.46,3.2-8.83,5.79-13.09,7.79-2.13.93-4.1,1.63-5.89,2.1-1.8.47-3.43.7-4.9.7-3.6,0-6.33-1.03-8.19-3.1-1.87-2.06-2.8-4.76-2.8-8.09,0-1.33.2-2.73.6-4.2.4-1.46.87-2.93,1.4-4.4l1.4-3.4c-3.46,4.26-6.93,7.83-10.39,10.69-3.46,2.87-6.93,5.36-10.39,7.49-2.93,1.73-5.69,3-8.29,3.8-2.6.8-4.96,1.2-7.09,1.2Zm6.19-5.19c2.4,0,5.86-1.43,10.39-4.3,4.53-2.86,9.79-7.29,15.78-13.29.8-.8,2.3-2.23,4.5-4.3,2.2-2.06,4.56-4.4,7.09-6.99,2.53-2.6,4.7-5.19,6.49-7.79s2.7-4.76,2.7-6.49c0-2.53-2.2-3.8-6.59-3.8-3.87,0-8.49,1.5-13.89,4.5s-10.56,7.43-15.48,13.29c-5.06,5.99-8.76,11.16-11.09,15.48-2.33,4.33-3.5,7.63-3.5,9.89,0,2.53,1.2,3.8,3.6,3.8Z"/>
  </g>
  <path class="cls-3" d="m207.33,711.95h8.85v24.53c0,2.44-1.98,4.42-4.42,4.42h0c-2.44,0-4.42-1.98-4.42-4.42v-24.53Z"/>
  <path class="cls-3" d="m225.02,711.95h8.85v24.53c0,2.44-1.98,4.42-4.42,4.42h0c-2.44,0-4.42-1.98-4.42-4.42v-24.53Z"/>
  <path class="cls-3" d="m196.88,646.81c.69-1.85,2.07-4.98,4.83-11.26,1.12-2.55,2.1-4.72,4.02-7.24.94-1.23,2.38-3.09,4.83-4.83,1.44-1.03,3.82-2.72,7.24-3.22,4.86-.71,8.71,1.44,10.45,2.41,3.22,1.8,5.17,4.11,6.43,5.63,1.11,1.34,2.04,2.71,3.22,4.83,3.32,5.97,2.91,7.57,6.43,15.28,1.26,2.75,2.27,4.64,4.02,8.85.52,1.23,1.01,2.41,1.61,4.02,1.89,5.05,2.89,9.08,3.22,10.45.46,1.93,1.21,5.08,1.61,8.85.47,4.51,1.06,10.13-.8,16.08-2.41,7.69-7.75,12.19-10.45,14.48-2.46,2.08-9.73,8.03-20.91,8.85-12.72.93-21.67-5.44-24.13-7.24-2.14-1.57-7.07-5.28-10.45-12.06-.52-1.04-2.52-5.19-3.22-11.26-.87-7.57.85-13.3,3.22-20.91,2.67-8.57,3.55-7.47,8.85-21.71Z"/>
  <path class="cls-2" d="m220.2,700.69c4.3.21,7.43-1.3,8.04-1.61,6.61-3.31,8.45-10.29,8.85-12.06.22-.96,1.78-8.55-3.22-15.28-.84-1.13-4.93-6.65-12.06-7.24-4.8-.4-8.38,1.66-9.65,2.41-5.67,3.36-7.53,8.85-8.04,10.45-.57,1.78-2.06,6.65,0,12.06,2.65,6.95,9.71,10.95,16.08,11.26Z"/>
</svg>